<svg aria-hidden="true" style="position: absolute; width: 0; height: 0; overflow: hidden;" xmlns="http://www.w3.org/2000/svg">
    <defs>
        <symbol id="icon-succes" viewBox="0 0 32 32">
            <path
                fill="#0074ff"
                style="fill: var(--color1, #0074ff);"
                d="M20.89 28.565a3.543 3.543 0 0 1-2.11-.702l.009.007-2.16-1.58c-.255-.19-.577-.304-.925-.304s-.67.114-.929.307l.004-.003-2.16 1.58a3.57 3.57 0 0 1-5.654-3.281l-.001.016.29-2.66a1.555 1.555 0 0 0-.915-1.596l-.01-.004-2.445-1.08C2.617 18.7 1.75 17.451 1.75 16s.867-2.7 2.111-3.256l.023-.009 2.445-1.08a1.558 1.558 0 0 0 .925-1.607l.001.007-.29-2.66a3.57 3.57 0 0 1 5.664-3.258l-.01-.007 2.16 1.58c.255.19.577.304.925.304s.67-.114.929-.307l-.004.003 2.16-1.58a3.473 3.473 0 0 1 2.082-.687c.222 0 .439.021.649.06l-.022-.003a3.64 3.64 0 0 1 2.367 1.552l.008.013a1 1 0 1 1-1.668 1.104l-.002-.004a1.617 1.617 0 0 0-1.05-.693l-.01-.002a1.497 1.497 0 0 0-1.188.287l.003-.003-2.16 1.58c-.582.431-1.315.69-2.107.69s-1.525-.259-2.117-.697l.01.007-2.155-1.58A1.565 1.565 0 0 0 8.93 7.196l-.001-.008.29 2.655a3.556 3.556 0 0 1-2.057 3.646l-.022.009-2.45 1.08a1.57 1.57 0 0 0-.01 2.866l.01.004 2.45 1.05a3.562 3.562 0 0 1 2.103 3.667l.002-.016-.29 2.655a1.565 1.565 0 0 0 2.504 1.433l2.151-1.577c.582-.431 1.315-.69 2.107-.69s1.525.259 2.117.697l-.01-.007 2.16 1.58a1.565 1.565 0 0 0 2.499-1.442l.001.008-.29-2.655a3.55 3.55 0 0 1 2.053-3.641l.022-.009 2.45-1.08a1.57 1.57 0 0 0 .01-2.866l-.01-.004-1.33-.55a1 1 0 1 1 .811-1.827l-.006-.003 1.33.585c1.267.565 2.134 1.814 2.134 3.265s-.867 2.7-2.111 3.256l-.023.009-2.445 1.08a1.568 1.568 0 0 0-.93 1.607l-.001-.007.29 2.66a3.498 3.498 0 0 1-1.742 3.466l-.017.009a3.54 3.54 0 0 1-1.766.465h-.025.001z"
            />
            <path
                fill="#ffb300"
                style="fill: var(--color2, #ffb300);"
                d="M15.82 19.5h-.001a.997.997 0 0 1-.709-.295L10.805 14.9a1 1 0 1 1 1.413-1.402l.001.002 3.6 3.6 12.72-12.74a1 1 0 0 1 1.409 1.416l.001-.001L16.524 19.2a1 1 0 0 1-.704.3h-.001z"
            />
        </symbol>
        <symbol id="icon-map" viewBox="0 0 24 24">
            <path
                d="M3.25 10.143C3.25 5.244 7.155 1.25 12 1.25s8.75 3.994 8.75 8.893c0 2.365-.674 4.905-1.866 7.099-1.19 2.191-2.929 4.095-5.104 5.112a4.2 4.2 0 0 1-3.561 0c-2.175-1.017-3.914-2.921-5.104-5.112-1.192-2.194-1.866-4.734-1.866-7.099zM12 2.75c-3.992 0-7.25 3.297-7.25 7.393 0 2.097.603 4.392 1.684 6.383 1.083 1.993 2.612 3.624 4.421 4.469a2.7 2.7 0 0 0 2.291 0c1.809-.845 3.338-2.476 4.421-4.469 1.081-1.991 1.684-4.286 1.684-6.383 0-4.096-3.258-7.393-7.25-7.393zm0 5a2.25 2.25 0 1 0 0 4.5 2.25 2.25 0 0 0 0-4.5zM8.25 10a3.75 3.75 0 1 1 7.5 0 3.75 3.75 0 0 1-7.5 0z"
            />
        </symbol>
        <symbol id="icon-phone" viewBox="0 0 32 32">
            <path
                d="M21.468 17.812zm.607-.604zm3.222-.422zm2.547 1.385zm.718 4.34zm-1.894 1.883zm-1.766.893zm-13.148-5.652zM5.337 7.661zm8.633 1.936zm.209-3.539zm-1.681-2.246zm-4.149-.379zM6.256 5.514zm9.828 9.816zm6.089 3.191.607-.604-1.41-1.418-.607.604 1.41 1.418zm2.646-.857 2.547 1.385.955-1.757-2.547-1.385-.955 1.757zm3.038 4.137-1.894 1.883 1.41 1.418 1.894-1.883-1.41-1.418zm-3.048 2.49c-1.933.18-6.935.02-12.35-5.365l-1.41 1.418c5.909 5.876 11.534 6.163 13.946 5.938l-.186-1.991zm-12.35-5.365C7.297 13.793 6.442 9.477 6.336 7.604l-1.997.113c.134 2.357 1.193 7.141 6.71 12.627l1.41-1.418zm1.834-8.24.382-.38-1.41-1.418-.382.38 1.41 1.418zm.686-5.227-1.681-2.246-1.601 1.199 1.681 2.246 1.601-1.199zM7.644 2.724 5.551 4.805l1.41 1.418 2.093-2.081-1.41-1.418zm5.944 7.253c-.705-.709-.706-.708-.707-.707l-.002.002-.004.004-.008.009-.018.019-.042.048a2.067 2.067 0 0 0-.318.558c-.136.361-.209.838-.118 1.428.179 1.154.974 2.678 3.009 4.701l1.41-1.418c-1.905-1.894-2.358-3.046-2.443-3.59-.04-.259.001-.386.013-.416.007-.019.01-.021.002-.008a.315.315 0 0 1-.022.029c-.005.007-.012.014-.02.022l-.012.013-.007.007-.004.004-.002.002c-.001 0-.002.002-.707-.707zm1.791 6.062c2.036 2.024 3.567 2.812 4.723 2.99.591.091 1.067.018 1.428-.116.177-.066.318-.144.425-.215a1.73 1.73 0 0 0 .211-.168l.004-.004.002-.002s.002-.002-.703-.711-.704-.71-.703-.711l.002-.002.004-.004.007-.007.013-.012.022-.019a.554.554 0 0 1 .029-.022c.012-.008.01-.005-.01.003-.033.012-.163.054-.426.013-.551-.084-1.712-.538-3.616-2.431l-1.41 1.418zM13.298 3.213c-1.359-1.815-4.032-2.103-5.655-.489l1.41 1.418c.709-.705 1.968-.633 2.643.269l1.601-1.199zM6.336 7.604c-.026-.461.185-.944.625-1.381l-1.41-1.418c-.716.712-1.28 1.721-1.212 2.913l1.997-.113zm19.627 16.081c-.366.364-.759.57-1.154.606l.186 1.991c.979-.091 1.782-.586 2.379-1.179l-1.41-1.418zM14.675 10.306c1.313-1.305 1.41-3.37.304-4.847l-1.601 1.199c.538.719.458 1.662-.113 2.23l1.41 1.418zm12.692 8.743c1.09.593 1.26 1.987.49 2.752l1.41 1.418c1.787-1.777 1.236-4.742-.945-5.928l-.955 1.757zm-4.587-1.132c.512-.509 1.336-.635 2.039-.253l.955-1.757c-1.445-.785-3.238-.569-4.405.592l1.41 1.418z"
            />
        </symbol>
        <symbol id="icon-burger" viewBox="0 0 24 24">
            <path
                d="M2.571 6c0-.473.384-.857.857-.857h17.143a.857.857 0 0 1 0 1.714H3.428A.857.857 0 0 1 2.571 6zM2.571 12c0-.473.384-.857.857-.857h17.143a.857.857 0 0 1 0 1.714H3.428A.857.857 0 0 1 2.571 12zM3.429 17.143a.857.857 0 0 0 0 1.714h17.143a.857.857 0 0 0 0-1.714H3.429z"
            />
        </symbol>
        <symbol id="icon-email" viewBox="0 0 20 20">
            <path
                d="M3.238 4.364c-.567.526-.946 1.38-.946 2.719v5.833c0 1.339.379 2.193.946 2.719.575.534 1.441.823 2.596.823h8.333c1.154 0 2.021-.289 2.596-.823.567-.526.946-1.38.946-2.719V7.083c0-1.339-.379-2.193-.946-2.719-.575-.534-1.441-.823-2.596-.823H5.834c-1.154 0-2.021.289-2.596.823zm-.851-.916c.883-.82 2.1-1.157 3.446-1.157h8.333c1.346 0 2.563.336 3.446 1.157.892.828 1.346 2.058 1.346 3.635v5.833c0 1.578-.454 2.807-1.346 3.635-.883.82-2.1 1.157-3.446 1.157H5.833c-1.346 0-2.563-.336-3.446-1.157-.892-.828-1.346-2.058-1.346-3.635V7.083c0-1.577.454-2.807 1.346-3.635z"
            />
            <path d="M16.136 6.092a.625.625 0 0 1-.112.877l-4.623 3.572a2.29 2.29 0 0 1-2.802 0L3.976 6.969a.625.625 0 0 1 .765-.989l4.623 3.572c.375.29.899.29 1.274 0l4.623-3.572a.625.625 0 0 1 .877.112z" />
        </symbol>
        <symbol id="icon-user" viewBox="0 0 24 24">
            <path
                d="M21.773 20.245c-.639-1.153-1.617-1.956-2.558-2.524s-1.86-.905-2.398-1.107c-.41-.152-.842-.349-1.139-.559a1.397 1.397 0 0 1-.324-.295c-.064-.088-.077-.143-.077-.186v-1.608a2.34 2.34 0 0 1 .191-.385c.118-.195.276-.391.434-.687.131-.247.249-.557.339-.963.08-.039.159-.084.237-.138.238-.164.439-.403.603-.716.166-.314.31-.708.462-1.241l-.001.004.001-.004c.079-.277.116-.52.116-.741.003-.355-.108-.663-.292-.871a1.03 1.03 0 0 0-.203-.177c.023-.273.065-.636.105-1.055.046-.486.087-1.041.087-1.616-.002-.91-.099-1.87-.484-2.699a3.05 3.05 0 0 0-.833-1.094 2.941 2.941 0 0 0-1.259-.581c-.335-.257-.659-.481-1.063-.637-.436-.169-.939-.247-1.604-.247-.21 0-.437.008-.685.023-.694.003-1.262.088-1.811.086-.383 0-.76-.037-1.198-.162l-.234-.067-.187.156c-.575.488-.883 1.215-1.072 2.024-.186.812-.247 1.724-.247 2.629 0 1.181.106 2.347.195 3.222a1.097 1.097 0 0 0-.201.164c-.198.207-.322.528-.319.9 0 .221.038.464.116.74v.001c.204.711.389 1.176.639 1.529.125.175.269.319.426.428.077.054.156.098.235.137.142.608.382 1.049.587 1.368.116.181.218.324.281.431.06.101.078.158.082.184v1.661c0 .033-.013.092-.084.187-.103.14-.328.318-.597.468a5.457 5.457 0 0 1-.851.382c-.732.259-2.121.765-3.35 1.749-.615.493-1.192 1.109-1.616 1.879s-.691 1.692-.69 2.765c0 .186.008.378.024.573l.035.421h20.812l.035-.421c.016-.195.024-.386.024-.572a5.615 5.615 0 0 0-.692-2.762zm-.23 2.836H2.456l-.003-.075c.001-.923.223-1.679.576-2.322.529-.962 1.371-1.673 2.225-2.188s1.709-.829 2.241-1.017c.42-.149.907-.364 1.322-.652.208-.145.399-.308.552-.51.152-.199.271-.451.271-.742v-1.724l-.003-.024a1.388 1.388 0 0 0-.208-.567c-.141-.235-.3-.44-.445-.706a3.258 3.258 0 0 1-.359-1.034l-.046-.263-.251-.09a1.1 1.1 0 0 1-.266-.129c-.102-.072-.196-.169-.316-.392-.118-.221-.248-.562-.39-1.063a1.83 1.83 0 0 1-.082-.489c.004-.197.047-.243.071-.273a.229.229 0 0 1 .121-.062l.399-.089-.043-.407c-.094-.893-.225-2.181-.225-3.456 0-.862.061-1.717.224-2.423.135-.596.348-1.07.612-1.371.424.097.817.132 1.184.132.648-.001 1.213-.088 1.836-.087h.015l.016-.001c.233-.014.442-.021.63-.021.598 0 .971.069 1.273.185s.561.294.911.567l.09.07.112.02c.41.074.714.22.96.418.366.296.612.734.767 1.276.155.54.211 1.174.21 1.804 0 .53-.039 1.058-.083 1.529s-.095.884-.117 1.205a4.235 4.235 0 0 1-.015.162l-.041.391.381.1a.216.216 0 0 1 .111.062c.023.03.064.081.067.269 0 .114-.02.275-.081.487v.001c-.189.668-.359 1.049-.503 1.248-.072.1-.134.159-.204.207s-.151.088-.266.129l-.251.09-.046.263a3.64 3.64 0 0 1-.19.708c-.105.262-.217.424-.362.638a3.568 3.568 0 0 0-.452.852l-.027.075v1.78c-.001.281.109.532.256.73.223.299.527.515.856.704.33.187.688.34 1.025.466.713.265 1.999.745 3.086 1.615.543.434 1.034.96 1.388 1.6.354.641.576 1.395.577 2.317l-.003.074z"
            />
        </symbol>
        <symbol id="icon-city" viewBox="0 0 20 20">
            <path
                d="M6.25 2.427 1.875 4.615v12.886h16.25V6.251h-7.5V4.615L6.25 2.427zm0 1.396 3.125 1.563V16.25h-6.25V5.386L6.25 3.823zM4.375 6.25V7.5h1.25V6.25h-1.25zm2.5 0V7.5h1.25V6.25h-1.25zm3.75 1.25h6.25v8.75h-6.25V7.5zm-6.25 1.25V10h1.25V8.75h-1.25zm2.5 0V10h1.25V8.75h-1.25zm5 0V10h1.25V8.75h-1.25zm2.5 0V10h1.25V8.75h-1.25zm-10 2.5v1.25h1.25v-1.25h-1.25zm2.5 0v1.25h1.25v-1.25h-1.25zm5 0v1.25h1.25v-1.25h-1.25zm2.5 0v1.25h1.25v-1.25h-1.25zm-10 2.5V15h1.25v-1.25h-1.25zm2.5 0V15h1.25v-1.25h-1.25zm5 0V15h1.25v-1.25h-1.25zm2.5 0V15h1.25v-1.25h-1.25z"
            />
        </symbol>
        <symbol id="icon-ice-cream" viewBox="0 0 20 20">
<path fill="#f1c84f" style="fill: var(--color2, #f1c84f)" d="M5.63 7.425l4.307 12.041 5.001-11.77z"></path>
<path fill="#f0841b" style="fill: var(--color3, #f0841b)" d="M14.13 7.991l-4.448 10.768 0.367 0.973 4.746-11.732z"></path>
<path fill="#000" style="fill: var(--color4, #000)" d="M12.051 14.436c-0.055-0-0.099-0.044-0.099-0.099 0-0.013 0.002-0.025 0.007-0.037l-0 0.001 2.875-7.355h-9.78l1.161 2.97c0.004 0.010 0.006 0.022 0.006 0.034 0 0.055-0.044 0.099-0.099 0.099-0.041 0-0.076-0.025-0.091-0.060l-0-0.001-1.266-3.24h10.361l-2.981 7.625c-0.015 0.037-0.051 0.063-0.092 0.063 0 0 0 0-0 0v0zM11.582 15.635c-0.055-0-0.099-0.044-0.099-0.099 0-0.013 0.002-0.025 0.007-0.037l-0 0.001 0.252-0.643c0.015-0.037 0.051-0.063 0.092-0.063 0.013 0 0.025 0.002 0.037 0.007l-0.001-0c0.037 0.015 0.063 0.051 0.063 0.092 0 0.013-0.002 0.025-0.007 0.037l0-0.001-0.251 0.643c-0.015 0.037-0.051 0.063-0.092 0.063v0zM9.944 20l-2.985-7.637c-0.004-0.011-0.007-0.023-0.007-0.036 0-0.042 0.026-0.077 0.062-0.092l0.001-0c0.011-0.004 0.023-0.007 0.036-0.007 0.042 0 0.077 0.026 0.092 0.062l0 0.001 2.801 7.165 1.301-3.328c0.020-0.051 0.077-0.076 0.128-0.056 0.037 0.015 0.063 0.051 0.063 0.092 0 0.013-0.003 0.025-0.007 0.037l0-0.001-1.485 3.8zM6.762 11.687c-0.042 0-0.077-0.026-0.092-0.062l-0-0.001-0.324-0.83c-0.004-0.011-0.007-0.023-0.007-0.036 0-0.042 0.026-0.077 0.062-0.092l0.001-0c0.011-0.004 0.023-0.007 0.036-0.007 0.042 0 0.077 0.026 0.092 0.062l0 0.001 0.324 0.83c0.004 0.011 0.007 0.023 0.007 0.036 0 0.055-0.044 0.099-0.099 0.099v0z"></path>
<path fill="#ec7699" style="fill: var(--color5, #ec7699)" d="M6.113 3.495c0 0 0 0 0 0 0 1.851 1.838 3.351 4.106 3.351s4.106-1.5 4.106-3.351c0-0 0-0 0-0v0c0-0 0-0 0-0 0-1.851-1.838-3.351-4.106-3.351s-4.106 1.5-4.106 3.351c0 0 0 0 0 0v0z"></path>
<path fill="#d8476d" style="fill: var(--color6, #d8476d)" d="M10.488 0.145c-0.138 0-0.274 0.006-0.408 0.018 1.978 0.185 3.524 1.786 3.524 3.734 0 0.877-0.314 1.683-0.839 2.322 0.988-0.608 1.632-1.601 1.632-2.723 0-1.851-1.75-3.351-3.908-3.351z"></path>
<path fill="#040000" style="fill: var(--color7, #040000)" d="M6.496 1.637c-0.055-0-0.099-0.044-0.099-0.099 0-0.026 0.010-0.049 0.026-0.067l-0 0c0.215-0.234 0.461-0.448 0.733-0.634 0.016-0.011 0.035-0.017 0.056-0.017 0.034 0 0.064 0.017 0.082 0.043l0 0c0.011 0.016 0.017 0.035 0.017 0.056 0 0.034-0.017 0.064-0.043 0.082l-0 0c-0.259 0.177-0.494 0.381-0.699 0.604-0.018 0.020-0.044 0.032-0.073 0.032-0 0-0 0-0 0v0z"></path>
<path fill="#040000" style="fill: var(--color7, #040000)" d="M9.944 7.711c-2.47 0-4.48-1.729-4.48-3.855 0-0.566 0.139-1.112 0.414-1.621 0.017-0.030 0.049-0.051 0.086-0.051 0.055 0 0.099 0.044 0.099 0.099 0 0.017-0.004 0.032-0.011 0.046l0-0.001c-0.259 0.48-0.39 0.994-0.39 1.527 0 2.017 1.921 3.657 4.282 3.657s4.282-1.641 4.282-3.657c0-2.017-1.921-3.657-4.282-3.657-0.684 0-1.338 0.134-1.943 0.397-0.012 0.005-0.025 0.008-0.040 0.008-0.040 0-0.075-0.024-0.091-0.059l-0-0.001c-0.005-0.012-0.008-0.025-0.008-0.040 0-0.040 0.024-0.075 0.059-0.091l0.001-0c0.63-0.275 1.31-0.414 2.022-0.414 2.47 0 4.48 1.729 4.48 3.855s-2.010 3.855-4.48 3.855z"></path>
<path fill="#e5c569" style="fill: var(--color8, #e5c569)" d="M9.944 1.342c0 0.085 0.069 0.155 0.155 0.155s0.155-0.069 0.155-0.155v0c0-0.085-0.069-0.155-0.155-0.155s-0.155 0.069-0.155 0.155v0z"></path>
<path fill="#e5c569" style="fill: var(--color8, #e5c569)" d="M10.416 1.033c0 0.085 0.069 0.155 0.155 0.155s0.155-0.069 0.155-0.155v0c0-0.085-0.069-0.155-0.155-0.155s-0.155 0.069-0.155 0.155v0z"></path>
<path fill="#e5c569" style="fill: var(--color8, #e5c569)" d="M10.416 1.651c0 0.085 0.069 0.155 0.155 0.155s0.155-0.069 0.155-0.155v0c0-0.085-0.069-0.155-0.155-0.155s-0.155 0.069-0.155 0.155v0z"></path>
<path fill="#e5c569" style="fill: var(--color8, #e5c569)" d="M11.243 1.187c-0.001 0.084-0.070 0.152-0.155 0.152s-0.153-0.068-0.155-0.152v-0c0.001-0.084 0.070-0.152 0.155-0.152s0.153 0.068 0.155 0.152v0z"></path>
<path fill="#e5c569" style="fill: var(--color8, #e5c569)" d="M9.136 1.813c0 0.112 0.091 0.203 0.203 0.203s0.203-0.091 0.203-0.203v0c0-0.112-0.091-0.203-0.203-0.203s-0.203 0.091-0.203 0.203v0z"></path>
<path fill="#e5c569" style="fill: var(--color8, #e5c569)" d="M11.243 2.222c0 0 0 0 0 0 0 0.085-0.069 0.155-0.155 0.155s-0.155-0.069-0.155-0.155c0-0.085 0.069-0.155 0.155-0.155 0 0 0 0 0 0v0c0.085 0 0.155 0.069 0.155 0.155z"></path>
<path fill="#e5c569" style="fill: var(--color8, #e5c569)" d="M9.944 0.878c0 0.085 0.069 0.155 0.155 0.155s0.155-0.069 0.155-0.155v0c0-0.085-0.069-0.155-0.155-0.155s-0.155 0.069-0.155 0.155v0z"></path>
<path fill="#e5c569" style="fill: var(--color8, #e5c569)" d="M11.243 1.651c0 0 0 0 0 0 0 0.085-0.069 0.155-0.155 0.155s-0.155-0.069-0.155-0.155c0-0.085 0.069-0.155 0.155-0.155 0 0 0 0 0 0v0c0.085 0 0.155 0.069 0.155 0.155z"></path>
<path fill="#e5c569" style="fill: var(--color8, #e5c569)" d="M11.539 1.651c0 0.085 0.069 0.155 0.155 0.155s0.155-0.069 0.155-0.155v0c0-0.085-0.069-0.155-0.155-0.155s-0.155 0.069-0.155 0.155v0z"></path>
<path fill="#e5c569" style="fill: var(--color8, #e5c569)" d="M11.694 2.377c0 0.085 0.069 0.155 0.155 0.155s0.155-0.069 0.155-0.155v0c0-0.085-0.069-0.155-0.155-0.155s-0.155 0.069-0.155 0.155v0z"></path>
<path fill="#000" style="fill: var(--color4, #000)" d="M8.625 8.887l-0.127-0.152-0.598 0.578 0.127 0.152zM8.768 8.749l0.943-0.912-0.003-0.003-0.27-0.008-0.798 0.772zM7.756 9.451l-1.049 1.014 0.069 0.208 1.107-1.070zM9.281 11.273l-0.127-0.152-1.197 1.158 0.127 0.152zM10.165 10.418l0.943-0.912-0.127-0.152-0.943 0.912zM9.424 11.135l0.598-0.578-0.127-0.152-0.598 0.578zM7.813 12.416l-0.345 0.334 0.069 0.208 0.404-0.39zM12.445 8.214l-0.127-0.152-0.494 0.477 0.127 0.152zM11.808 8.829l-0.127-0.152-0.558 0.539 0.127 0.152zM12.588 8.076l0.152-0.147-0.276-0.009-0.003 0.003zM10.492 12.411l0.598-0.578-0.127-0.152-0.598 0.578zM10.222 12.397l-1.197 1.158 0.127 0.152 1.197-1.157zM14.183 8.658l0.058-0.147-0.1 0.097zM12.192 10.493l0.127 0.152 0.558-0.539-0.127-0.152zM13.528 9.2l0.127 0.152 0.408-0.395 0.035-0.089-0.102-0.122zM12.892 9.815l0.127 0.152 0.494-0.477-0.127-0.152zM11.105 11.543l0.127 0.152 0.943-0.912-0.127-0.152zM8.882 13.693l-0.832 0.805 0.069 0.208 0.89-0.861zM11.405 13.503l0.127 0.152 0.598-0.578-0.127-0.152zM10.050 15.089l-0.127-0.152-0.984 0.951 0.127 0.152zM12.274 12.939l0.351-0.339 0.176-0.446-0.655 0.633zM8.796 16.026l-0.18 0.174 0.069 0.208 0.238-0.23zM10.065 14.799l0.127 0.152 1.197-1.157-0.127-0.152zM11.213 16.17l0.148-0.375-0.255 0.247zM9.837 17.27l-0.654 0.633 0.069 0.208 0.712-0.689zM10.107 17.284l0.984-0.951-0.127-0.152-0.984 0.951zM14.141 8.608l-0.546-0.653-0.265-0.008 0.669 0.799z"></path>
<path fill="#000" style="fill: var(--color4, #000)" d="M13.998 8.746l0.102 0.122 0.083-0.21-0.042-0.050zM12.176 10.783l0.792 0.947 0.083-0.21-0.732-0.875zM10.981 9.354l0.143-0.138-1.15-1.374-0.26-0.008-0.003 0.003zM12.192 10.493l-0.941-1.124-0.143 0.138 0.941 1.124zM9.714 7.834l-0.006-0 0.003 0.003z"></path>
<path fill="#000" style="fill: var(--color4, #000)" d="M11.251 9.368l-0.127-0.152-0.143 0.138 0.127 0.152zM12.049 10.631l0.127 0.152 0.143-0.138-0.127-0.152zM12.892 9.815l-0.941-1.124-0.143 0.138 0.941 1.124zM12.877 10.106l0.498 0.596 0.083-0.21-0.438-0.524zM11.824 8.539l-0.549-0.656-0.265-0.008 0.671 0.802z"></path>
<path fill="#000" style="fill: var(--color4, #000)" d="M11.951 8.691l-0.127-0.152-0.143 0.138 0.127 0.152zM12.749 9.953l0.127 0.152 0.143-0.138-0.127-0.152zM10.349 12.55l0.913 1.092 0.143-0.138-0.913-1.092zM10.364 12.259l-0.941-1.124-0.143 0.138 0.941 1.124zM11.39 13.794l0.518 0.619 0.083-0.21-0.458-0.548zM6.762 7.954l-0.152 0.127 1.146 1.37 0.143-0.138zM8.027 9.465l-0.143 0.138 1.269 1.517 0.143-0.138z"></path>
<path fill="#000" style="fill: var(--color4, #000)" d="M8.027 9.465l-0.127-0.152-0.143 0.138 0.127 0.152zM9.424 11.135l-0.127-0.152-0.143 0.138 0.127 0.152zM10.349 12.55l0.143-0.138-0.127-0.152-0.143 0.138zM11.262 13.641l0.127 0.152 0.143-0.138-0.127-0.152zM8.64 8.597l-0.684-0.818-0.265-0.008 0.807 0.964zM12.003 12.925l0.143-0.138-0.913-1.092-0.143 0.138zM10.963 11.681l0.143-0.138-0.941-1.124-0.143 0.138zM9.894 10.404l0.143-0.138-1.269-1.517-0.143 0.138zM12.131 13.077l0.207 0.248 0.083-0.21-0.147-0.176zM8.768 8.749l-0.127-0.152-0.143 0.138 0.127 0.152zM10.165 10.418l-0.127-0.152-0.143 0.138 0.127 0.152zM10.963 11.681l0.127 0.152 0.143-0.138-0.127-0.152z"></path>
<path fill="#000" style="fill: var(--color4, #000)" d="M12.131 13.077l0.143-0.138-0.127-0.152-0.143 0.138zM12.46 7.923l-0.003-0.003-0.265-0.008 0.125 0.15zM13.386 9.338l0.143-0.138-0.941-1.124-0.143 0.138zM13.513 9.49l0.231 0.276 0.083-0.21-0.171-0.205z"></path>
<path fill="#000" style="fill: var(--color4, #000)" d="M12.588 8.076l-0.127-0.152-0.143 0.138 0.127 0.152zM13.513 9.49l0.143-0.138-0.127-0.152-0.143 0.138zM11.13 16.38l0.055-0.138-0.094 0.091zM10.963 16.181l0.143-0.138-0.913-1.092-0.143 0.138zM7.956 12.278l-1.071-1.28 0.171 0.513 0.758 0.906zM9.152 13.707l-0.143 0.138 0.913 1.092 0.143-0.138zM8.084 12.43l-0.143 0.138 0.941 1.124 0.143-0.138zM7.956 12.278l-0.143 0.138 0.127 0.152 0.143-0.138z"></path>
<path fill="#000" style="fill: var(--color4, #000)" d="M9.025 13.555l-0.143 0.138 0.127 0.152 0.143-0.138zM9.922 14.937l0.127 0.152 0.143-0.138-0.127-0.152zM10.963 16.181l0.127 0.152 0.094-0.091 0.028-0.071-0.107-0.128zM9.964 17.422l0.512 0.612 0.083-0.21-0.452-0.541zM8.939 15.888l-0.708-0.846 0.171 0.513 0.395 0.472zM9.066 16.040l-0.143 0.138 0.913 1.092 0.143-0.138z"></path>
<path fill="#000" style="fill: var(--color4, #000)" d="M8.939 15.888l-0.143 0.138 0.127 0.152 0.143-0.138zM9.837 17.27l0.127 0.152 0.143-0.138-0.127-0.152zM9.543 18.987l0.378 0.452 0.083-0.21-0.632-0.755z"></path>
<path fill="#e5c569" style="fill: var(--color8, #e5c569)" d="M11.384 1.187c0 0.085 0.069 0.155 0.155 0.155s0.155-0.069 0.155-0.155v0c0-0.085-0.069-0.155-0.155-0.155s-0.155 0.069-0.155 0.155v0z"></path>
<path fill="#e5c569" style="fill: var(--color8, #e5c569)" d="M9.705 1.913c0 0.085 0.069 0.155 0.155 0.155s0.155-0.069 0.155-0.155v0c0-0.085-0.069-0.155-0.155-0.155s-0.155 0.069-0.155 0.155v0z"></path>
<path fill="#e5c569" style="fill: var(--color8, #e5c569)" d="M12.084 1.651c0 0.085 0.069 0.155 0.155 0.155s0.155-0.069 0.155-0.155v0c0-0.085-0.069-0.155-0.155-0.155s-0.155 0.069-0.155 0.155v0z"></path>
<path fill="#fff" style="fill: var(--color9, #fff)" d="M5.020 6.515s-1.536 2.267 0.96 1.322c0 0-0.517 2.087 1.856 0.882 0.661-0.336 0.832 0.84 0.832 0.84s1.067 0.462 1.771-1.197c0.704-1.658 0.747 0.735 1.579 0.672s1.365-0.735 1.493-1.344c0.128-0.609 1.088 0.504 1.195 0.756s1.374-1.203-0.405-3.107c-1.152-1.233-1.649-1.38-1.819-0.204s-0.632 0.895-1.444-0.279c-0.393-0.568-1.427-0.166-1.9 0.398-0.298 0.355-1.022 0.568-1.598-0.335s-2.475 0.147-2.517 1.595z"></path>
<path fill="#040000" style="fill: var(--color7, #040000)" d="M9.012 9.717c-0.225 0-0.377-0.065-0.383-0.067l-0.051-0.022-0.008-0.055c-0.033-0.227-0.189-0.815-0.508-0.815-0.055 0-0.116 0.017-0.181 0.050-0.504 0.256-0.922 0.386-1.243 0.386-0.271 0-0.478-0.090-0.617-0.267-0.218-0.278-0.201-0.7-0.169-0.937-0.744 0.258-1.183 0.232-1.341-0.066-0.228-0.429 0.295-1.264 0.411-1.44 0.050-1.079 1.112-1.998 1.961-1.998 0.323 0 0.578 0.132 0.738 0.381 0.248 0.389 0.547 0.594 0.863 0.594 0.258 0 0.467-0.139 0.576-0.27 0.344-0.41 0.932-0.708 1.398-0.708 0.288 0 0.516 0.11 0.66 0.317 0.169 0.245 0.685 0.99 0.962 0.99 0.135-0 0.24-0.231 0.303-0.669 0.055-0.382 0.176-0.891 0.578-0.891 0.311 0 0.72 0.302 1.411 1.042 1.261 1.35 0.994 2.423 0.821 2.822-0.123 0.282-0.306 0.479-0.446 0.479-0.060 0-0.11-0.033-0.134-0.089-0.086-0.202-0.68-0.875-0.929-0.875-0.020 0-0.057 0-0.078 0.101-0.134 0.637-0.686 1.354-1.583 1.422-0.423 0.032-0.658-0.44-0.846-0.816-0.093-0.187-0.22-0.442-0.303-0.442-0.021 0-0.134 0.025-0.347 0.526-0.486 1.145-1.159 1.316-1.518 1.316zM8.756 9.484c0.052 0.015 0.142 0.035 0.256 0.035 0.378 0 0.916-0.207 1.335-1.195 0.192-0.453 0.351-0.647 0.529-0.647 0.205 0 0.332 0.256 0.48 0.552 0.17 0.341 0.361 0.728 0.653 0.706 0.794-0.060 1.284-0.698 1.404-1.265 0.047-0.225 0.191-0.258 0.272-0.258 0.363 0 0.945 0.696 1.088 0.95 0.067-0.048 0.209-0.217 0.297-0.508 0.132-0.435 0.198-1.332-0.843-2.447-0.393-0.42-0.951-0.979-1.267-0.979-0.069 0-0.278 0-0.382 0.721-0.052 0.36-0.161 0.839-0.499 0.839-0.27 0-0.596-0.312-1.125-1.075-0.106-0.154-0.274-0.232-0.497-0.232-0.406 0-0.941 0.274-1.246 0.637-0.179 0.213-0.451 0.341-0.728 0.341-0.27 0-0.668-0.119-1.030-0.686-0.153-0.239-0.395-0.29-0.57-0.29-0.689 0-1.733 0.77-1.764 1.835l-0.001 0.029-0.016 0.024c-0.169 0.25-0.573 0.963-0.416 1.26 0.049 0.093 0.159 0.138 0.334 0.138 0.221 0 0.532-0.075 0.925-0.224l0.176-0.067-0.045 0.183c-0.002 0.006-0.149 0.624 0.101 0.943 0.1 0.128 0.251 0.19 0.461 0.19 0.29 0 0.678-0.122 1.153-0.364 0.093-0.047 0.184-0.071 0.271-0.071 0.481 0 0.653 0.708 0.694 0.924z"></path>
</symbol>
    </defs>
</svg>